<?xml version="1.0" standalone="no"?><!DOCTYPE svg PUBLIC "-//W3C//DTD SVG 1.1//EN" "http://www.w3.org/Graphics/SVG/1.1/DTD/svg11.dtd"><svg t="1665389696878" class="icon" viewBox="0 0 1027 1024" version="1.1" xmlns="http://www.w3.org/2000/svg" p-id="8071" xmlns:xlink="http://www.w3.org/1999/xlink" width="200.5859375" height="200"><path d="M275.849519 710.21108a39.894705 39.894705 0 1 0 40.072489 39.894705 39.645807 39.645807 0 0 0-40.072489-39.894705z m0-472.905145a39.894705 39.894705 0 1 0 40.072489 39.894705 40.428056 40.428056 0 0 0-40.072489-40.072489z m0 235.954778a39.930261 39.930261 0 1 0 40.072489 39.894704A39.645807 39.645807 0 0 0 275.849519 472.905145z m593.79819-472.905145H157.872131A157.623196 157.623196 0 0 0-0.03552 157.658753v709.037706a157.623196 157.623196 0 0 0 157.907651 157.303185h711.775578a157.623196 157.623196 0 0 0 157.90765-157.303185V157.303185A159.152138 159.152138 0 0 0 869.789936 0z m78.936047 867.585379a78.79382 78.79382 0 0 1-78.936047 78.651592H157.872131a78.79382 78.79382 0 0 1-78.936047-78.651592V158.476559a78.79382 78.79382 0 0 1 78.936047-78.651593h711.775578a78.79382 78.79382 0 0 1 78.936047 78.651593zM750.603617 237.554833H433.899397a39.894705 39.894705 0 1 0 0 79.824966h316.988674a39.645807 39.645807 0 0 0 40.072489-39.894705 40.3925 40.3925 0 0 0-40.214716-40.356943z m0 235.954777H433.899397a39.930261 39.930261 0 1 0 0 79.824966h316.988674a39.930261 39.930261 0 1 0 0-79.824966z m0 237.128152H433.899397a39.894705 39.894705 0 1 0 0 79.824966h316.988674a39.894705 39.894705 0 1 0 0-79.824966z" p-id="8072"></path></svg>