<?xml version="1.0" standalone="no"?><!DOCTYPE svg PUBLIC "-//W3C//DTD SVG 1.1//EN" "http://www.w3.org/Graphics/SVG/1.1/DTD/svg11.dtd"><svg t="1577152040692" class="icon" viewBox="0 0 1024 1024" version="1.1" xmlns="http://www.w3.org/2000/svg" p-id="2978" xmlns:xlink="http://www.w3.org/1999/xlink" width="200" height="200"><defs><style type="text/css"></style></defs><path d="M128 512a42.666667 42.666667 0 0 0 42.666667 42.666667h256a42.666667 42.666667 0 0 0 42.666666-42.666667V170.666667a42.666667 42.666667 0 0 0-42.666666-42.666667H170.666667a42.666667 42.666667 0 0 0-42.666667 42.666667v341.333333z m85.333333-298.666667h170.666667v256H213.333333V213.333333zM128 896a42.666667 42.666667 0 0 0 42.666667 42.666667h256a42.666667 42.666667 0 0 0 42.666666-42.666667v-213.333333a42.666667 42.666667 0 0 0-42.666666-42.666667H170.666667a42.666667 42.666667 0 0 0-42.666667 42.666667v213.333333z m85.333333-170.666667h170.666667v128H213.333333v-128z m341.333334 170.666667a42.666667 42.666667 0 0 0 42.666666 42.666667h256a42.666667 42.666667 0 0 0 42.666667-42.666667v-341.333333a42.666667 42.666667 0 0 0-42.666667-42.666667h-256a42.666667 42.666667 0 0 0-42.666666 42.666667v341.333333z m85.333333-298.666667h170.666667v256h-170.666667v-256zM554.666667 170.666667v213.333333a42.666667 42.666667 0 0 0 42.666666 42.666667h256a42.666667 42.666667 0 0 0 42.666667-42.666667V170.666667a42.666667 42.666667 0 0 0-42.666667-42.666667h-256a42.666667 42.666667 0 0 0-42.666666 42.666667z m85.333333 42.666666h170.666667v128h-170.666667V213.333333z" fill="" p-id="2979"></path></svg>