<?xml version="1.0" standalone="no"?><!DOCTYPE svg PUBLIC "-//W3C//DTD SVG 1.1//EN" "http://www.w3.org/Graphics/SVG/1.1/DTD/svg11.dtd"><svg t="1577169455997" class="icon" viewBox="0 0 1024 1024" version="1.1" xmlns="http://www.w3.org/2000/svg" p-id="2610" width="32" height="32" xmlns:xlink="http://www.w3.org/1999/xlink"><defs><style type="text/css"></style></defs><path d="M463.352775 4.094073a198.923801 198.923801 0 0 1 111.744121 138.476012 276.952023 276.952023 0 0 1-21.674507 177.008466c-26.972719 53.945437-74.656632 97.776105-87.661335 158.464723a85.734713 85.734713 0 0 0 41.181561 93.200376 60.447789 60.447789 0 0 0 72.248354-56.835372 158.223895 158.223895 0 0 0-43.108184-102.111006 256.963311 256.963311 0 0 1 162.558795 179.175917 194.829727 194.829727 0 0 1-16.857949 120.413923 146.904986 146.904986 0 0 0 60.44779-107.168391c5.298213-86.457197-40.940734-163.281279-63.578552-244.199436a116.801505 116.801505 0 0 1 64.541863-141.365945 102.111007 102.111007 0 0 0-32.993415 76.824082c10.11477 72.248354 60.206961 127.39793 100.66604 184.233302a310.908749 310.908749 0 0 1 58.521166 255.518345 355.221072 355.221072 0 0 1-219.15334 260.575729c-68.15428 29.862653-144.496707 26.491063-216.745061 19.0254a330.415804 330.415804 0 0 1-268.041392-216.745062c-26.491063-84.771402-30.825964-186.400753 24.082785-261.298212-26.731891 96.331138 56.353716 206.389464 156.297271 208.075259a168.579492 168.579492 0 0 1-99.702728-98.016934 206.871119 206.871119 0 0 1 7.947319-166.893697c38.291627-84.289746 106.686736-148.349953 165.689558-216.745061 38.773283-51.055503 72.248354-110.539981 75.138288-176.045155A126.434619 126.434619 0 0 0 463.352775 4.094073z" fill="#d81e06" p-id="2611"></path></svg>