<?xml version="1.0" standalone="no"?><!DOCTYPE svg PUBLIC "-//W3C//DTD SVG 1.1//EN" "http://www.w3.org/Graphics/SVG/1.1/DTD/svg11.dtd"><svg t="1576118457196" class="icon" viewBox="0 0 1024 1024" version="1.1" xmlns="http://www.w3.org/2000/svg" p-id="1914" xmlns:xlink="http://www.w3.org/1999/xlink" width="200" height="200"><defs><style type="text/css"></style></defs><path d="M853.333333 195.047619a24.380952 24.380952 0 0 0-24.380952-24.380952h-146.285714V73.142857h-48.761905v97.52381h-97.52381V73.142857h-48.761904v97.52381h-97.52381V73.142857h-48.761905v97.52381H195.047619a24.380952 24.380952 0 0 0-24.380952 24.380952v101.912381A73.142857 73.142857 0 0 0 126.293333 341.333333H73.142857v48.761905h53.150476A73.142857 73.142857 0 0 0 170.666667 434.468571V487.619048H73.142857v48.761904h97.52381v97.52381H73.142857v48.761905h97.52381v146.285714a24.380952 24.380952 0 0 0 24.380952 24.380952h146.285714v97.52381h48.761905v-97.52381h97.52381v97.52381h48.761904v-97.52381h97.52381v97.52381h48.761905v-97.52381h146.285714a24.380952 24.380952 0 0 0 24.380952-24.380952v-101.912381A73.142857 73.142857 0 0 0 897.706667 682.666667H950.857143v-48.761905h-53.150476A73.142857 73.142857 0 0 0 853.333333 589.531429V536.380952h97.52381v-48.761904h-97.52381v-97.52381h97.52381v-48.761905h-97.52381zM195.047619 390.095238a24.380952 24.380952 0 1 1 24.380952-24.380952 24.380952 24.380952 0 0 1-24.380952 24.380952z m474.940952 414.476191l-97.523809-121.904762h-162.377143a73.142857 73.142857 0 1 0 0 48.761904h138.971429l58.514285 73.142858H219.428571V434.468571a73.142857 73.142857 0 0 0 0-137.508571V219.428571h134.582858l97.523809 121.904762h162.377143a73.142857 73.142857 0 1 0 0-48.761904h-138.971429l-58.514285-73.142858H804.571429v370.102858a73.142857 73.142857 0 0 0 0 137.508571V804.571429zM365.714286 707.047619a24.380952 24.380952 0 1 1-24.380953-24.380952 24.380952 24.380952 0 0 1 24.380953 24.380952z m292.571428-390.095238a24.380952 24.380952 0 1 1 24.380953 24.380952 24.380952 24.380952 0 0 1-24.380953-24.380952z m195.047619 341.333333a24.380952 24.380952 0 1 1-24.380952-24.380952 24.380952 24.380952 0 0 1 24.380952 24.380952z" p-id="1915" fill="#68bd45"></path><path d="M373.76 399.60381h-24.380952l-73.142858 209.92h43.154286l13.653334-42.666667h79.725714l14.140952 42.666667h46.567619l-74.361905-209.92z m-28.525714 131.169523l28.038095-84.358095 27.794286 84.358095zM589.531429 399.60381h-87.771429V609.52381h43.885714v-74.605715h43.885715a77.04381 77.04381 0 0 0 54.613333-17.554285 67.779048 67.779048 0 0 0 18.773333-51.68762 61.68381 61.68381 0 0 0-18.773333-48.761904 79.238095 79.238095 0 0 0-54.613333-17.310476z m19.992381 90.697142a40.96 40.96 0 0 1-27.550477 8.045715h-36.571428v-62.659048h36.571428a42.179048 42.179048 0 0 1 27.550477 7.558095 27.062857 27.062857 0 0 1 9.264761 22.430476 31.695238 31.695238 0 0 1-9.264761 24.624762zM693.394286 399.60381V609.52381h43.885714v-209.92h-43.885714z" p-id="1916" fill="#68bd45"></path><path d="M512 24.380952m-24.380952 0a24.380952 24.380952 0 1 0 48.761904 0 24.380952 24.380952 0 1 0-48.761904 0Z" p-id="1917" fill="#68bd45"></path><path d="M365.714286 24.380952m-24.380953 0a24.380952 24.380952 0 1 0 48.761905 0 24.380952 24.380952 0 1 0-48.761905 0Z" p-id="1918" fill="#68bd45"></path><path d="M658.285714 24.380952m-24.380952 0a24.380952 24.380952 0 1 0 48.761905 0 24.380952 24.380952 0 1 0-48.761905 0Z" p-id="1919" fill="#68bd45"></path><path d="M512 999.619048m-24.380952 0a24.380952 24.380952 0 1 0 48.761904 0 24.380952 24.380952 0 1 0-48.761904 0Z" p-id="1920" fill="#68bd45"></path><path d="M365.714286 999.619048m-24.380953 0a24.380952 24.380952 0 1 0 48.761905 0 24.380952 24.380952 0 1 0-48.761905 0Z" p-id="1921" fill="#68bd45"></path><path d="M658.285714 999.619048m-24.380952 0a24.380952 24.380952 0 1 0 48.761905 0 24.380952 24.380952 0 1 0-48.761905 0Z" p-id="1922" fill="#68bd45"></path><path d="M24.380952 512m-24.380952 0a24.380952 24.380952 0 1 0 48.761905 0 24.380952 24.380952 0 1 0-48.761905 0Z" p-id="1923" fill="#68bd45"></path><path d="M24.380952 658.285714m-24.380952 0a24.380952 24.380952 0 1 0 48.761905 0 24.380952 24.380952 0 1 0-48.761905 0Z" p-id="1924" fill="#68bd45"></path><path d="M24.380952 365.714286m-24.380952 0a24.380952 24.380952 0 1 0 48.761905 0 24.380952 24.380952 0 1 0-48.761905 0Z" p-id="1925" fill="#68bd45"></path><path d="M999.619048 512m-24.380953 0a24.380952 24.380952 0 1 0 48.761905 0 24.380952 24.380952 0 1 0-48.761905 0Z" p-id="1926" fill="#68bd45"></path><path d="M999.619048 658.285714m-24.380953 0a24.380952 24.380952 0 1 0 48.761905 0 24.380952 24.380952 0 1 0-48.761905 0Z" p-id="1927" fill="#68bd45"></path><path d="M999.619048 365.714286m-24.380953 0a24.380952 24.380952 0 1 0 48.761905 0 24.380952 24.380952 0 1 0-48.761905 0Z" p-id="1928" fill="#68bd45"></path></svg>