<?xml version="1.0" standalone="no"?><!DOCTYPE svg PUBLIC "-//W3C//DTD SVG 1.1//EN" "http://www.w3.org/Graphics/SVG/1.1/DTD/svg11.dtd"><svg t="1577253467431" class="icon" viewBox="0 0 1024 1024" version="1.1" xmlns="http://www.w3.org/2000/svg" p-id="4251" xmlns:xlink="http://www.w3.org/1999/xlink" width="64" height="64"><defs><style type="text/css"></style></defs><path d="M348.16 877.226667h329.386667c10.24 0 20.48 5.12 25.6 15.36 5.12 10.24 5.12 20.48 0 30.72-5.12 10.24-15.36 15.36-25.6 15.36H348.16c-10.24 0-20.48-5.12-25.6-15.36-5.12-10.24-5.12-20.48 0-30.72 3.413333-8.533333 13.653333-15.36 25.6-15.36zM158.72 85.333333h706.56c18.773333 0 37.546667 8.533333 51.2 22.186667 13.653333 13.653333 22.186667 32.426667 22.186667 51.2v585.386667c0 18.773333-8.533333 37.546667-22.186667 51.2-13.653333 13.653333-32.426667 22.186667-51.2 22.186666H158.72c-18.773333 0-37.546667-8.533333-51.2-22.186666-13.653333-13.653333-22.186667-32.426667-22.186667-51.2V158.72c0-18.773333 8.533333-37.546667 22.186667-51.2 13.653333-13.653333 30.72-22.186667 51.2-22.186667z m0 73.386667v414.72h706.56V158.72H158.72zM512 732.16c13.653333 0 25.6-6.826667 32.426667-18.773333 6.826667-11.946667 6.826667-25.6 0-35.84-6.826667-11.946667-18.773333-18.773333-32.426667-18.773334-20.48 0-35.84 17.066667-35.84 35.84 0 20.48 15.36 37.546667 35.84 37.546667z m0 0" p-id="4252" fill="#68bd45"></path><path d="M416.426667 254.293333c3.413333 5.12 6.826667 10.24 5.12 17.066667 0 5.12-1.706667 10.24-5.12 13.653333l-80.213334 80.213334 80.213334 80.213333c3.413333 3.413333 6.826667 8.533333 6.826666 13.653333 0 6.826667-1.706667 11.946667-6.826666 15.36-5.12 3.413333-11.946667 6.826667-18.773334 6.826667-5.12 0-10.24-1.706667-13.653333-6.826667l-97.28-95.573333c-3.413333-3.413333-6.826667-8.533333-6.826667-15.36 0-5.12 1.706667-10.24 6.826667-13.653333l97.28-95.573334c3.413333-3.413333 10.24-6.826667 15.36-5.12 5.12-1.706667 11.946667 1.706667 17.066667 5.12zM527.36 264.533333c1.706667-5.12 6.826667-10.24 11.946667-13.653333 5.12-3.413333 11.946667-3.413333 18.773333-1.706667 6.826667 1.706667 10.24 6.826667 13.653333 11.946667 3.413333 6.826667 3.413333 11.946667 1.706667 17.066667L501.76 460.8c-1.706667 5.12-6.826667 10.24-11.946667 13.653333-5.12 3.413333-11.946667 3.413333-18.773333 1.706667-5.12-1.706667-10.24-6.826667-13.653333-11.946667-3.413333-5.12-3.413333-11.946667-1.706667-17.066666l71.68-182.613334zM750.933333 368.64c0 6.826667-1.706667 11.946667-6.826666 15.36L650.24 477.866667c-5.12 5.12-10.24 6.826667-17.066667 6.826666-5.12 0-11.946667-1.706667-15.36-6.826666-3.413333-5.12-5.12-10.24-5.12-15.36 0-6.826667 1.706667-10.24 5.12-13.653334l80.213334-80.213333-80.213334-78.506667c-10.24-10.24-11.946667-20.48-5.12-30.72 3.413333-5.12 8.533333-6.826667 17.066667-6.826666 6.826667 0 13.653333 1.706667 18.773333 6.826666l97.28 95.573334c3.413333 3.413333 5.12 6.826667 5.12 13.653333z" p-id="4253" fill="#68bd45"></path></svg>